<svg width="91" height="38" viewBox="0 0 91 38" fill="none" xmlns="http://www.w3.org/2000/svg">
<path d="M40 15.7807C40 24.4962 31.0457 22.8821 20 22.8821C8.9543 22.8821 0 24.4962 0 15.7807C0 7.06528 8.9543 0 20 0C31.0457 0 40 7.06528 40 15.7807Z" fill="#D2B28B"/>
<rect x="2" y="26" width="36" height="12" rx="6" fill="#D2B28B"/>
<path d="M50.3 28V13.6H53V28H50.3ZM60.5425 28.24C59.5825 28.24 58.7158 28.02 57.9425 27.58C57.1825 27.1267 56.5758 26.5067 56.1225 25.72C55.6692 24.9333 55.4425 24.0333 55.4425 23.02C55.4425 21.98 55.6692 21.0667 56.1225 20.28C56.5758 19.4933 57.1892 18.88 57.9625 18.44C58.7358 18 59.5958 17.78 60.5425 17.78C61.5158 17.78 62.3892 18 63.1625 18.44C63.9358 18.88 64.5425 19.4933 64.9825 20.28C65.4358 21.0667 65.6625 21.98 65.6625 23.02C65.6625 24.0467 65.4358 24.9533 64.9825 25.74C64.5292 26.5133 63.9158 27.1267 63.1425 27.58C62.3692 28.02 61.5025 28.24 60.5425 28.24ZM60.5425 25.9C60.9825 25.9 61.3758 25.7933 61.7225 25.58C62.0825 25.3667 62.3692 25.0467 62.5825 24.62C62.7958 24.18 62.9025 23.64 62.9025 23C62.9025 22.36 62.7958 21.8267 62.5825 21.4C62.3692 20.9733 62.0825 20.6533 61.7225 20.44C61.3758 20.2267 60.9892 20.12 60.5625 20.12C60.1358 20.12 59.7425 20.2267 59.3825 20.44C59.0225 20.6533 58.7358 20.9733 58.5225 21.4C58.3092 21.8267 58.2025 22.3667 58.2025 23.02C58.2025 23.6467 58.3092 24.18 58.5225 24.62C58.7358 25.0467 59.0158 25.3667 59.3625 25.58C59.7225 25.7933 60.1158 25.9 60.5425 25.9ZM71.7955 32.64C70.8355 32.64 69.9955 32.52 69.2755 32.28C68.5688 32.0533 68.0155 31.7 67.6155 31.22C67.2288 30.7533 67.0355 30.1733 67.0355 29.48C67.0355 29.0133 67.1555 28.5733 67.3955 28.16C67.6355 27.7467 67.9888 27.3733 68.4555 27.04C68.9221 26.7067 69.4955 26.4133 70.1755 26.16L71.1755 27.5C70.5755 27.7 70.1421 27.9467 69.8755 28.24C69.6088 28.5467 69.4755 28.8667 69.4755 29.2C69.4755 29.5067 69.5755 29.7667 69.7755 29.98C69.9888 30.1933 70.2688 30.3467 70.6155 30.44C70.9621 30.5467 71.3555 30.6 71.7955 30.6C72.2088 30.6 72.5688 30.5467 72.8755 30.44C73.1955 30.3333 73.4421 30.1733 73.6155 29.96C73.7888 29.76 73.8755 29.5267 73.8755 29.26C73.8755 28.9 73.7488 28.6067 73.4955 28.38C73.2555 28.1533 72.7621 28.0133 72.0155 27.96C71.3355 27.9067 70.7288 27.8333 70.1955 27.74C69.6755 27.6333 69.2155 27.5133 68.8155 27.38C68.4288 27.2333 68.0955 27.0733 67.8155 26.9C67.5355 26.7267 67.3088 26.5533 67.1355 26.38V25.92L69.2755 23.62L71.1955 24.22L68.6955 26.72L69.4755 25.4C69.6088 25.4933 69.7421 25.58 69.8755 25.66C70.0221 25.7267 70.2021 25.7867 70.4155 25.84C70.6288 25.8933 70.9021 25.9467 71.2355 26C71.5821 26.0533 72.0155 26.1 72.5355 26.14C73.4155 26.22 74.1355 26.3867 74.6955 26.64C75.2688 26.8933 75.6888 27.2333 75.9555 27.66C76.2221 28.0733 76.3555 28.5867 76.3555 29.2C76.3555 29.7867 76.1888 30.34 75.8555 30.86C75.5355 31.3933 75.0355 31.82 74.3555 32.14C73.6888 32.4733 72.8355 32.64 71.7955 32.64ZM71.8155 25.06C70.9621 25.06 70.2288 24.9 69.6155 24.58C69.0155 24.2467 68.5555 23.8067 68.2355 23.26C67.9155 22.7 67.7555 22.0867 67.7555 21.42C67.7555 20.74 67.9155 20.1267 68.2355 19.58C68.5555 19.0333 69.0221 18.6 69.6355 18.28C70.2488 17.9467 70.9755 17.78 71.8155 17.78C72.6555 17.78 73.3755 17.9467 73.9755 18.28C74.5888 18.6 75.0555 19.0333 75.3755 19.58C75.6955 20.1267 75.8555 20.74 75.8555 21.42C75.8555 22.0867 75.6955 22.7 75.3755 23.26C75.0555 23.8067 74.5888 24.2467 73.9755 24.58C73.3755 24.9 72.6555 25.06 71.8155 25.06ZM71.8155 23C72.3221 23 72.7355 22.8667 73.0555 22.6C73.3755 22.32 73.5355 21.9267 73.5355 21.42C73.5355 20.9267 73.3755 20.5467 73.0555 20.28C72.7355 20.0133 72.3221 19.88 71.8155 19.88C71.2955 19.88 70.8688 20.0133 70.5355 20.28C70.2155 20.5467 70.0555 20.9267 70.0555 21.42C70.0555 21.9267 70.2155 22.32 70.5355 22.6C70.8688 22.8667 71.2955 23 71.8155 23ZM73.4555 19.92L72.9955 18.02H77.1555V19.62L73.4555 19.92ZM83.9089 28.24C82.9489 28.24 82.0822 28.02 81.3089 27.58C80.5489 27.1267 79.9422 26.5067 79.4889 25.72C79.0356 24.9333 78.8089 24.0333 78.8089 23.02C78.8089 21.98 79.0356 21.0667 79.4889 20.28C79.9422 19.4933 80.5556 18.88 81.3289 18.44C82.1022 18 82.9622 17.78 83.9089 17.78C84.8822 17.78 85.7556 18 86.5289 18.44C87.3022 18.88 87.9089 19.4933 88.3489 20.28C88.8022 21.0667 89.0289 21.98 89.0289 23.02C89.0289 24.0467 88.8022 24.9533 88.3489 25.74C87.8956 26.5133 87.2822 27.1267 86.5089 27.58C85.7356 28.02 84.8689 28.24 83.9089 28.24ZM83.9089 25.9C84.3489 25.9 84.7422 25.7933 85.0889 25.58C85.4489 25.3667 85.7356 25.0467 85.9489 24.62C86.1622 24.18 86.2689 23.64 86.2689 23C86.2689 22.36 86.1622 21.8267 85.9489 21.4C85.7356 20.9733 85.4489 20.6533 85.0889 20.44C84.7422 20.2267 84.3556 20.12 83.9289 20.12C83.5022 20.12 83.1089 20.2267 82.7489 20.44C82.3889 20.6533 82.1022 20.9733 81.8889 21.4C81.6756 21.8267 81.5689 22.3667 81.5689 23.02C81.5689 23.6467 81.6756 24.18 81.8889 24.62C82.1022 25.0467 82.3822 25.3667 82.7289 25.58C83.0889 25.7933 83.4822 25.9 83.9089 25.9Z" fill="#D2B28B"/>
</svg>
